<?xml version="1.0" encoding="UTF-8" standalone="no"?>
<!-- Created with Inkscape (http://www.inkscape.org/) -->

<svg
   xmlns:dc="http://purl.org/dc/elements/1.1/"
   xmlns:cc="http://creativecommons.org/ns#"
   xmlns:rdf="http://www.w3.org/1999/02/22-rdf-syntax-ns#"
   xmlns:svg="http://www.w3.org/2000/svg"
   xmlns="http://www.w3.org/2000/svg"
   xmlns:sodipodi="http://sodipodi.sourceforge.net/DTD/sodipodi-0.dtd"
   xmlns:inkscape="http://www.inkscape.org/namespaces/inkscape"
   id="svg3336"
   version="1.1"
   inkscape:version="0.91 r13725"
   xml:space="preserve"
   width="396.46201"
   height="147.16376"
   viewBox="0 0 396.46201 147.16376"
   sodipodi:docname="Logo_alex.svg"><metadata
     id="metadata3342"><rdf:RDF><cc:Work
         rdf:about=""><dc:format>image/svg+xml</dc:format><dc:type
           rdf:resource="http://purl.org/dc/dcmitype/StillImage" /><dc:title></dc:title></cc:Work></rdf:RDF></metadata><defs
     id="defs3340"><clipPath
       clipPathUnits="userSpaceOnUse"
       id="clipPath3350"><path
         d="M 0,360 720,360 720,0 0,0 0,360 Z"
         id="path3352"
         inkscape:connector-curvature="0" /></clipPath><clipPath
       clipPathUnits="userSpaceOnUse"
       id="clipPath3370"><path
         d="M 0,360 720,360 720,0 0,0 0,360 Z"
         id="path3372"
         inkscape:connector-curvature="0" /></clipPath></defs><sodipodi:namedview
     pagecolor="#ffffff"
     bordercolor="#666666"
     borderopacity="1"
     objecttolerance="10"
     gridtolerance="10"
     guidetolerance="10"
     inkscape:pageopacity="0"
     inkscape:pageshadow="2"
     inkscape:window-width="1829"
     inkscape:window-height="966"
     id="namedview3338"
     showgrid="false"
     inkscape:zoom="3.5422222"
     inkscape:cx="214.43297"
     inkscape:cy="95.917392"
     inkscape:window-x="-8"
     inkscape:window-y="-8"
     inkscape:window-maximized="1"
     inkscape:current-layer="g3344"
     fit-margin-top="20"
     fit-margin-left="20"
     fit-margin-right="20"
     fit-margin-bottom="20"
     showguides="true"
     inkscape:guide-bbox="true" /><g
     id="g3344"
     inkscape:groupmode="layer"
     inkscape:label="Logo"
     transform="matrix(1.25,0,0,-1.25,15.056,459.90152)"><g
       id="g3346"
       transform="translate(-216.9335,128.67492)"><g
         id="g3348"
         clip-path="url(#clipPath3350)"><g
           id="g3354"
           transform="translate(291.7627,184.5303)"><path
             d="m 0,0 c 0.199,-1.354 0.306,-2.739 0.306,-4.149 0,-15.639 -12.677,-28.315 -28.315,-28.315 -15.637,0 -28.313,12.676 -28.313,28.315 0,15.636 12.676,28.312 28.313,28.312 6.671,0 12.797,-2.311 17.636,-6.171 4.946,2.048 10.019,3.862 15.179,5.428 -7.864,9.35 -19.642,15.296 -32.815,15.296 -23.674,0 -42.865,-19.192 -42.865,-42.865 0,-23.676 19.191,-42.866 42.865,-42.866 23.674,0 42.866,19.19 42.866,42.866 0,3.378 -0.403,6.662 -1.142,9.815 C 9.031,4.007 4.447,2.109 0,0"
             style="fill:#e42529;fill-opacity:1;fill-rule:nonzero;stroke:none"
             id="path3356"
             inkscape:connector-curvature="0" /></g></g></g><text
       transform="scale(1,-1)"
       style="font-variant:normal;font-weight:300;font-stretch:normal;font-size:50.21409988px;font-family:'Nexa Light';-inkscape-font-specification:Nexa-Light;writing-mode:lr-tb;fill:#30348a;fill-opacity:1;fill-rule:nonzero;stroke:none"
       id="text3358"
       x="94.750404"
       y="-285.52484"><tspan
         x="94.750404"
         sodipodi:role="line"
         id="tspan3360"
         y="-285.52484">OPTION</tspan></text>
<text
       transform="scale(1.1538037,-0.86669857)"
       style="font-variant:normal;font-weight:900;font-stretch:normal;font-size:15.70084476px;font-family:'Nexa Heavy';-inkscape-font-specification:NexaHeavy;writing-mode:lr-tb;fill:#e42529;fill-opacity:1;fill-rule:nonzero;stroke:none"
       id="text3362"
       x="83.091331"
       y="-312.04129"><tspan
         x="83.091331 93.281181 103.91063 116.97375 126.39424 136.694 140.4151 152.23782 162.53758 166.25868 176.88971 189.95285 202.35651 214.17924 226.33171 231.21468 240.87067"
         y="-312.04129"
         sodipodi:role="line"
         id="tspan3364">ÉCOLE DE CONDUITE</tspan></text>
<g
       id="g3366"
       transform="matrix(1.2143376,0,0,1,-268.95071,132.83613)"><g
         id="g3368"
         clip-path="url(#clipPath3370)"><g
           id="g3374"
           transform="translate(445.7842,199.958)"><path
             d="m 0,0 c -1.942,0.849 -3.891,1.685 -5.866,2.458 -1.961,0.813 -3.951,1.546 -5.943,2.288 -1.986,0.755 -4.008,1.406 -6.014,2.115 -2.03,0.631 -4.046,1.323 -6.094,1.906 -4.078,1.229 -8.211,2.288 -12.37,3.26 -16.651,3.807 -33.898,5.457 -51.144,4.803 -17.248,-0.634 -34.472,-3.534 -51.147,-8.489 -8.338,-2.481 -16.549,-5.454 -24.567,-8.966 -4.011,-1.751 -7.974,-3.636 -11.888,-5.674 -1.957,-1.02 -3.901,-2.078 -5.837,-3.189 -0.149,-0.086 -0.298,-0.179 -0.447,-0.265 l -11.541,9.592 c -4.8,-2.847 -8.473,-7.375 -10.238,-12.77 l 15.996,-12.85 4.951,-3.977 4.89,3.745 c 0.222,0.187 0.66,0.523 1.022,0.793 l 1.169,0.862 c 0.792,0.575 1.605,1.145 2.428,1.709 1.647,1.127 3.335,2.227 5.048,3.299 3.426,2.146 6.953,4.182 10.55,6.103 7.191,3.853 14.665,7.252 22.325,10.207 15.323,5.906 31.44,9.969 47.895,11.882 16.451,1.932 33.232,1.679 49.795,-0.751 4.135,-0.629 8.267,-1.345 12.367,-2.236 2.058,-0.413 4.091,-0.935 6.14,-1.399 2.029,-0.542 4.078,-1.026 6.096,-1.616 2.023,-0.577 4.051,-1.147 6.054,-1.797 2.016,-0.611 4.012,-1.286 6.005,-1.976 C 3.628,-2.296 7.564,-3.824 11.486,-5.405 7.703,-3.521 3.89,-1.681 0,0"
             style="fill:#30348a;fill-opacity:1;fill-rule:nonzero;stroke:none"
             id="path3376"
             inkscape:connector-curvature="0" /></g></g></g></g></svg>